<svg width="0" height="0" class="hidden">
  <symbol xmlns="http://www.w3.org/2000/svg" viewBox="0 0 184.469 21" id="logo">
    <path
      d="M37.25 18.856V2.03h-5.569v16.826h5.569zm23.544 0V2.03H55.75v8.641L49.101 2.03H44.45v16.826h5.064v-8.593l6.625 8.593h4.656zM82.058 6.423V2.03H66.91v4.392h4.777v12.434h5.568V6.422h4.8zm20.351-.168V2.03H88.174v16.826h14.45v-4.225h-8.881v-2.088h7.872V8.319h-7.872V6.256h8.664zm16.8 12.6h6.288l-3.312-5.472a5.846 5.846 0 002.665-5.327c0-3.84-2.616-6.025-7.176-6.025h-8.137v16.825h5.568v-4.369h2.089zm-4.1-8.593V6.256h2.569a1.763 1.763 0 011.9 1.968 1.8 1.8 0 01-1.9 2.04h-2.569zm22.2 8.593V2.03h-5.568v16.826h5.568zm15.6-16.993c-5.352 0-9.241 3.576-9.241 8.569 0 5.017 3.889 8.665 9.241 8.665s9.241-3.672 9.241-8.665c-.007-4.969-3.895-8.569-9.248-8.569zm.072 4.632c1.92 0 3.456 1.656 3.456 3.96s-1.536 4.008-3.456 4.008a3.808 3.808 0 01-3.6-4.008 3.748 3.748 0 013.593-3.96zm25.2 12.361h6.288l-3.319-5.472a5.846 5.846 0 002.664-5.328c0-3.84-2.616-6.025-7.176-6.025h-8.137v16.826h5.569v-4.369h2.088zm-4.1-8.593V6.256h2.568a1.763 1.763 0 011.9 1.968 1.8 1.8 0 01-1.9 2.04h-2.579zM0 9.187V0h9.187v9.187H0zM11.813 0H21v9.187h-9.187V0zm0 21v-9.188H21V21h-9.187zM0 21v-9.188h9.187V21H0z"
      fill="#212121" fill-rule="evenodd"></path>
  </symbol>
  <symbol xmlns="http://www.w3.org/2000/svg" id="search">
    <path
      d="M8.99 0a9.24 9.24 0 00-6.37 2.625A9.563 9.563 0 00.69 5.508a9.062 9.062 0 000 6.985 9.568 9.568 0 001.93 2.883 9.111 9.111 0 002.86 1.921 9 9 0 003.51.7 8.743 8.743 0 003-.516 9.052 9.052 0 002.6-1.453l5.67 5.672a1.013 1.013 0 00.73.3.9.9 0 00.7-.3 1 1 0 000-1.406l-5.67-5.672a9.007 9.007 0 001.46-2.625 8.86 8.86 0 00.51-3 8.546 8.546 0 00-.73-3.492A8.74 8.74 0 0012.48.724a8.629 8.629 0 00-3.49-.726zm0 1.992a6.848 6.848 0 012.72.563 7.241 7.241 0 012.23 1.5 7.347 7.347 0 011.5 2.227 7.115 7.115 0 010 5.438 7.335 7.335 0 01-1.5 2.227 7.228 7.228 0 01-2.23 1.5 6.854 6.854 0 01-2.72.562 6.749 6.749 0 01-2.72-.562 7.2 7.2 0 01-2.25-1.5 6.755 6.755 0 01-1.47-2.227 6.769 6.769 0 010-5.438 6.765 6.765 0 011.47-2.227 7.217 7.217 0 012.25-1.5 6.742 6.742 0 012.72-.563z"
      fill-rule="evenodd"></path>
  </symbol>
  <symbol xmlns="http://www.w3.org/2000/svg" viewBox="0 0 511.977 511.977" id="001-pinterest">
    <path
      d="M262.948 0C122.628 0 48.004 89.92 48.004 187.968c0 45.472 25.408 102.176 66.08 120.16 6.176 2.784 9.536 1.6 10.912-4.128 1.216-4.352 6.56-25.312 9.152-35.2.8-3.168.384-5.92-2.176-8.896-13.504-15.616-24.224-44.064-24.224-70.752 0-68.384 54.368-134.784 146.88-134.784 80 0 135.968 51.968 135.968 126.304 0 84-44.448 142.112-102.208 142.112-31.968 0-55.776-25.088-48.224-56.128 9.12-36.96 27.008-76.704 27.008-103.36 0-23.904-13.504-43.68-41.088-43.68-32.544 0-58.944 32.224-58.944 75.488 0 27.488 9.728 46.048 9.728 46.048S144.676 371.2 138.692 395.488c-10.112 41.12 1.376 107.712 2.368 113.44.608 3.168 4.16 4.16 6.144 1.568 3.168-4.16 42.08-59.68 52.992-99.808 3.968-14.624 20.256-73.92 20.256-73.92 10.72 19.36 41.664 35.584 74.624 35.584 98.048 0 168.896-86.176 168.896-193.12C463.62 76.704 375.876 0 262.948 0z">
    </path>
  </symbol>
  <symbol xmlns="http://www.w3.org/2000/svg" viewBox="0 0 155.139 155.139" id="002-facebook-app-symbol">
    <path
      d="M89.584 155.139V84.378h23.742l3.562-27.585H89.584V39.184c0-7.984 2.208-13.425 13.67-13.425l14.595-.006V1.08C115.325.752 106.661 0 96.577 0 75.52 0 61.104 12.853 61.104 36.452v20.341H37.29v27.585h23.814v70.761h28.48z">
    </path>
  </symbol>
  <symbol xmlns="http://www.w3.org/2000/svg" viewBox="0 0 24 24" id="003-paper-plane">
    <path
      d="M8.75 17.612v4.638a.751.751 0 001.354.444l2.713-3.692zM23.685.139a.75.75 0 00-.782-.054l-22.5 11.75a.752.752 0 00.104 1.375l6.255 2.138 13.321-11.39L9.775 16.377l10.483 3.583a.753.753 0 00.984-.599l2.75-18.5a.751.751 0 00-.307-.722z">
    </path>
  </symbol>
  <symbol xmlns="http://www.w3.org/2000/svg" viewBox="0 0 512 512" id="004-twitter">
    <path
      d="M512 97.248c-19.04 8.352-39.328 13.888-60.48 16.576 21.76-12.992 38.368-33.408 46.176-58.016-20.288 12.096-42.688 20.64-66.56 25.408C411.872 60.704 384.416 48 354.464 48c-58.112 0-104.896 47.168-104.896 104.992 0 8.32.704 16.32 2.432 23.936-87.264-4.256-164.48-46.08-216.352-109.792-9.056 15.712-14.368 33.696-14.368 53.056 0 36.352 18.72 68.576 46.624 87.232-16.864-.32-33.408-5.216-47.424-12.928v1.152c0 51.008 36.384 93.376 84.096 103.136-8.544 2.336-17.856 3.456-27.52 3.456-6.72 0-13.504-.384-19.872-1.792 13.6 41.568 52.192 72.128 98.08 73.12-35.712 27.936-81.056 44.768-130.144 44.768-8.608 0-16.864-.384-25.12-1.44C46.496 446.88 101.6 464 161.024 464c193.152 0 298.752-160 298.752-298.688 0-4.64-.16-9.12-.384-13.568 20.832-14.784 38.336-33.248 52.608-54.496z">
    </path>
  </symbol>
  <symbol xmlns="http://www.w3.org/2000/svg" viewBox="0 0 16 16" id="005-google-plus-logo">
    <path
      d="M16 3.9h-2.8V1.3h-.6v2.6H9.9v.8h2.7v2.6h.6V4.7H16zM6.9 9c-.4-.2-1.1-.9-1.1-1.3s.1-.7.8-1.2c.7-.5 1.2-1.2 1.2-2.1 0-1.1-.5-2.1-1.3-2.4h1.3l.9-.7H4.5C2.6 1.3.9 2.7.9 4.4s1.3 3 3.2 3h.4c-.2.2-.2.4-.2.7 0 .5.3.8.6 1.2h-.7c-2.3 0-4.1 1.5-4.1 3s2 2.5 4.3 2.5c2.6 0 4.1-1.5 4.1-3-.1-1.3-.5-2-1.6-2.8zM4.7 6.9c-1.1 0-2.1-1.2-2.3-2.6S2.9 1.8 4 1.8 6.1 3 6.3 4.4 5.8 7 4.7 6.9zm-.4 7.2c-1.6 0-2.8-1-2.8-2.2s1.4-2.2 3-2.2c.4 0 .7.1 1 .2.9.6 1.5.9 1.7 1.6 0 .1.1.3.1.4 0 1.2-.8 2.2-3 2.2z">
    </path>
  </symbol>
  <symbol xmlns="http://www.w3.org/2000/svg" viewBox="0 0 492.004 492.004" id="right-arrow">
    <path
      d="M382.678 226.804L163.73 7.86C158.666 2.792 151.906 0 144.698 0s-13.968 2.792-19.032 7.86l-16.124 16.12c-10.492 10.504-10.492 27.576 0 38.064L293.398 245.9l-184.06 184.06c-5.064 5.068-7.86 11.824-7.86 19.028 0 7.212 2.796 13.968 7.86 19.04l16.124 16.116c5.068 5.068 11.824 7.86 19.032 7.86s13.968-2.792 19.032-7.86L382.678 265c5.076-5.084 7.864-11.872 7.848-19.088.016-7.244-2.772-14.028-7.848-19.108z">
    </path>
  </symbol>
  <symbol xmlns="http://www.w3.org/2000/svg" viewBox="0 0 512 512" id="location-icon">
    <path
      d="M256 0C153.755 0 70.573 83.182 70.573 185.426c0 126.888 165.939 313.167 173.004 321.035 6.636 7.391 18.222 7.378 24.846 0 7.065-7.868 173.004-194.147 173.004-321.035C441.425 83.182 358.244 0 256 0zm0 278.719c-51.442 0-93.292-41.851-93.292-93.293S204.559 92.134 256 92.134s93.291 41.851 93.291 93.293-41.85 93.292-93.291 93.292z">
    </path>
  </symbol>
  <symbol xmlns="http://www.w3.org/2000/svg" viewBox="0 0 469.333 469.333" id="001-loop">
    <path
      d="M234.667 362.667c-70.72 0-128-57.28-128-128 0-21.653 5.44-41.92 14.827-59.84L90.347 143.68C73.813 170.133 64 201.173 64 234.667c0 94.293 76.373 170.667 170.667 170.667v64L320 384l-85.333-85.333v64zm0-298.667V0l-85.333 85.333 85.333 85.333v-64c70.72 0 128 57.28 128 128 0 21.653-5.44 41.92-14.827 59.84l31.147 31.147c16.533-26.453 26.347-57.493 26.347-90.987C405.333 140.373 328.96 64 234.667 64z">
    </path>
  </symbol>
</svg>