<svg width="0" height="0" class="hidden">
  <symbol xmlns="http://www.w3.org/2000/svg" viewBox="0 0 184.469 21" id="logo">
    <path
      d="M37.25 18.856V2.03h-5.569v16.826h5.569zm23.544 0V2.03H55.75v8.641L49.101 2.03H44.45v16.826h5.064v-8.593l6.625 8.593h4.656zM82.058 6.423V2.03H66.91v4.392h4.777v12.434h5.568V6.422h4.8zm20.351-.168V2.03H88.174v16.826h14.45v-4.225h-8.881v-2.088h7.872V8.319h-7.872V6.256h8.664zm16.8 12.6h6.288l-3.312-5.472a5.846 5.846 0 002.665-5.327c0-3.84-2.616-6.025-7.176-6.025h-8.137v16.825h5.568v-4.369h2.089zm-4.1-8.593V6.256h2.569a1.763 1.763 0 011.9 1.968 1.8 1.8 0 01-1.9 2.04h-2.569zm22.2 8.593V2.03h-5.568v16.826h5.568zm15.6-16.993c-5.352 0-9.241 3.576-9.241 8.569 0 5.017 3.889 8.665 9.241 8.665s9.241-3.672 9.241-8.665c-.007-4.969-3.895-8.569-9.248-8.569zm.072 4.632c1.92 0 3.456 1.656 3.456 3.96s-1.536 4.008-3.456 4.008a3.808 3.808 0 01-3.6-4.008 3.748 3.748 0 013.593-3.96zm25.2 12.361h6.288l-3.319-5.472a5.846 5.846 0 002.664-5.328c0-3.84-2.616-6.025-7.176-6.025h-8.137v16.826h5.569v-4.369h2.088zm-4.1-8.593V6.256h2.568a1.763 1.763 0 011.9 1.968 1.8 1.8 0 01-1.9 2.04h-2.579zM0 9.187V0h9.187v9.187H0zM11.813 0H21v9.187h-9.187V0zm0 21v-9.188H21V21h-9.187zM0 21v-9.188h9.187V21H0z"
      fill="#212121" fill-rule="evenodd"></path>
  </symbol>
  <symbol xmlns="http://www.w3.org/2000/svg" id="search">
    <path
      d="M8.99 0a9.24 9.24 0 00-6.37 2.625A9.563 9.563 0 00.69 5.508a9.062 9.062 0 000 6.985 9.568 9.568 0 001.93 2.883 9.111 9.111 0 002.86 1.921 9 9 0 003.51.7 8.743 8.743 0 003-.516 9.052 9.052 0 002.6-1.453l5.67 5.672a1.013 1.013 0 00.73.3.9.9 0 00.7-.3 1 1 0 000-1.406l-5.67-5.672a9.007 9.007 0 001.46-2.625 8.86 8.86 0 00.51-3 8.546 8.546 0 00-.73-3.492A8.74 8.74 0 0012.48.724a8.629 8.629 0 00-3.49-.726zm0 1.992a6.848 6.848 0 012.72.563 7.241 7.241 0 012.23 1.5 7.347 7.347 0 011.5 2.227 7.115 7.115 0 010 5.438 7.335 7.335 0 01-1.5 2.227 7.228 7.228 0 01-2.23 1.5 6.854 6.854 0 01-2.72.562 6.749 6.749 0 01-2.72-.562 7.2 7.2 0 01-2.25-1.5 6.755 6.755 0 01-1.47-2.227 6.769 6.769 0 010-5.438 6.765 6.765 0 011.47-2.227 7.217 7.217 0 012.25-1.5 6.742 6.742 0 012.72-.563z"
      fill-rule="evenodd"></path>
  </symbol>
  
</svg>